<svg xmlns="http://www.w3.org/2000/svg" xmlns:xlink="http://www.w3.org/1999/xlink" width="500" zoomAndPan="magnify" viewBox="0 0 375 374.999991" height="500" preserveAspectRatio="xMidYMid meet" version="1.0"><defs><g/></defs><g fill="#5e17eb" fill-opacity="1"><g transform="translate(13.901674, 221.999985)"><g><path d="M 24.59375 1 C 20.332031 1 16.367188 0.300781 12.703125 -1.09375 C 9.035156 -2.5 5.867188 -4.632812 3.203125 -7.5 L 6 -12.296875 C 8.9375 -9.566406 11.882812 -7.582031 14.84375 -6.34375 C 17.8125 -5.113281 20.960938 -4.5 24.296875 -4.5 C 28.367188 -4.5 31.671875 -5.316406 34.203125 -6.953125 C 36.734375 -8.585938 38 -10.9375 38 -14 C 38 -16.0625 37.378906 -17.644531 36.140625 -18.75 C 34.910156 -19.851562 33.144531 -20.753906 30.84375 -21.453125 C 28.550781 -22.148438 25.800781 -22.898438 22.59375 -23.703125 C 19 -24.703125 15.984375 -25.75 13.546875 -26.84375 C 11.117188 -27.945312 9.285156 -29.347656 8.046875 -31.046875 C 6.816406 -32.742188 6.203125 -34.960938 6.203125 -37.703125 C 6.203125 -41.097656 7.050781 -43.910156 8.75 -46.140625 C 10.445312 -48.378906 12.78125 -50.082031 15.75 -51.25 C 18.71875 -52.414062 22.035156 -53 25.703125 -53 C 29.703125 -53 33.234375 -52.363281 36.296875 -51.09375 C 39.367188 -49.832031 41.867188 -48.066406 43.796875 -45.796875 L 40.5 -41.203125 C 38.632812 -43.335938 36.414062 -44.921875 33.84375 -45.953125 C 31.28125 -46.984375 28.429688 -47.5 25.296875 -47.5 C 23.160156 -47.5 21.125 -47.210938 19.1875 -46.640625 C 17.257812 -46.078125 15.675781 -45.144531 14.4375 -43.84375 C 13.207031 -42.550781 12.59375 -40.769531 12.59375 -38.5 C 12.59375 -36.632812 13.0625 -35.179688 14 -34.140625 C 14.9375 -33.109375 16.335938 -32.242188 18.203125 -31.546875 C 20.066406 -30.847656 22.363281 -30.097656 25.09375 -29.296875 C 29.03125 -28.234375 32.460938 -27.148438 35.390625 -26.046875 C 38.328125 -24.953125 40.59375 -23.535156 42.1875 -21.796875 C 43.789062 -20.066406 44.59375 -17.632812 44.59375 -14.5 C 44.59375 -9.632812 42.757812 -5.832031 39.09375 -3.09375 C 35.425781 -0.363281 30.59375 1 24.59375 1 Z M 24.59375 1 "/></g></g></g><g fill="#5e17eb" fill-opacity="1"><g transform="translate(62.199812, 221.999985)"><g><path d="M 44.703125 0 L 25.40625 -26.703125 L 14.296875 -16.296875 L 14.296875 0 L 7.5 0 L 7.5 -73 L 14.296875 -73 L 14.296875 -23.59375 L 43.796875 -52 L 51.296875 -52 L 30 -30.703125 L 52.09375 0 Z M 44.703125 0 "/></g></g></g><g fill="#5e17eb" fill-opacity="1"><g transform="translate(115.197764, 221.999985)"><g><path d="M 10.5 16 C 11.4375 16.0625 12.335938 16.109375 13.203125 16.140625 C 14.066406 16.179688 14.695312 16.132812 15.09375 16 C 15.894531 15.863281 16.660156 15.394531 17.390625 14.59375 C 18.128906 13.800781 19 12.269531 20 10 C 21 7.726562 22.398438 4.394531 24.203125 0 L 1.5 -52.09375 L 8.703125 -52.09375 L 27.796875 -7 L 45.40625 -52.09375 L 52.203125 -52.09375 L 25.203125 15.09375 C 24.734375 16.363281 24.03125 17.546875 23.09375 18.640625 C 22.164062 19.742188 21.015625 20.613281 19.640625 21.25 C 18.273438 21.882812 16.59375 22.234375 14.59375 22.296875 C 14 22.367188 13.382812 22.382812 12.75 22.34375 C 12.113281 22.3125 11.363281 22.226562 10.5 22.09375 Z M 10.5 16 "/></g></g></g><g fill="#5e17eb" fill-opacity="1"><g transform="translate(169.395674, 221.999985)"><g><path d="M 7.796875 -73 L 14.59375 -73 L 14.59375 -11.796875 C 14.59375 -9.203125 15.0625 -7.503906 16 -6.703125 C 16.9375 -5.898438 18.070312 -5.5 19.40625 -5.5 C 20.601562 -5.5 21.800781 -5.628906 23 -5.890625 C 24.195312 -6.160156 25.226562 -6.429688 26.09375 -6.703125 L 27.296875 -1.203125 C 26.035156 -0.671875 24.488281 -0.238281 22.65625 0.09375 C 20.820312 0.425781 19.238281 0.59375 17.90625 0.59375 C 14.832031 0.59375 12.378906 -0.300781 10.546875 -2.09375 C 8.710938 -3.894531 7.796875 -6.363281 7.796875 -9.5 Z M 7.796875 -73 "/></g></g></g><g fill="#5e17eb" fill-opacity="1"><g transform="translate(196.594628, 221.999985)"><g><path d="M 3.296875 -15 C 3.296875 -18.269531 4.226562 -21.085938 6.09375 -23.453125 C 7.96875 -25.816406 10.550781 -27.648438 13.84375 -28.953125 C 17.144531 -30.253906 20.960938 -30.90625 25.296875 -30.90625 C 27.828125 -30.90625 30.457031 -30.703125 33.1875 -30.296875 C 35.925781 -29.898438 38.363281 -29.300781 40.5 -28.5 L 40.5 -32.90625 C 40.5 -37.300781 39.195312 -40.796875 36.59375 -43.390625 C 34 -45.992188 30.398438 -47.296875 25.796875 -47.296875 C 22.992188 -47.296875 20.242188 -46.78125 17.546875 -45.75 C 14.847656 -44.71875 12.03125 -43.203125 9.09375 -41.203125 L 6.5 -46 C 9.894531 -48.332031 13.226562 -50.082031 16.5 -51.25 C 19.769531 -52.414062 23.101562 -53 26.5 -53 C 32.894531 -53 37.957031 -51.164062 41.6875 -47.5 C 45.425781 -43.832031 47.296875 -38.765625 47.296875 -32.296875 L 47.296875 -8.203125 C 47.296875 -7.265625 47.492188 -6.578125 47.890625 -6.140625 C 48.296875 -5.710938 48.929688 -5.46875 49.796875 -5.40625 L 49.796875 0 C 49.066406 0.0625 48.429688 0.125 47.890625 0.1875 C 47.359375 0.257812 46.960938 0.265625 46.703125 0.203125 C 45.035156 0.128906 43.765625 -0.40625 42.890625 -1.40625 C 42.023438 -2.40625 41.5625 -3.46875 41.5 -4.59375 L 41.40625 -8.40625 C 39.070312 -5.40625 36.035156 -3.085938 32.296875 -1.453125 C 28.566406 0.179688 24.769531 1 20.90625 1 C 17.570312 1 14.550781 0.285156 11.84375 -1.140625 C 9.144531 -2.578125 7.046875 -4.507812 5.546875 -6.9375 C 4.046875 -9.375 3.296875 -12.0625 3.296875 -15 Z M 38.203125 -11 C 38.929688 -11.9375 39.492188 -12.835938 39.890625 -13.703125 C 40.296875 -14.566406 40.5 -15.332031 40.5 -16 L 40.5 -23.59375 C 38.226562 -24.46875 35.875 -25.132812 33.4375 -25.59375 C 31.007812 -26.0625 28.5625 -26.296875 26.09375 -26.296875 C 21.226562 -26.296875 17.296875 -25.328125 14.296875 -23.390625 C 11.296875 -21.460938 9.796875 -18.832031 9.796875 -15.5 C 9.796875 -13.5625 10.296875 -11.742188 11.296875 -10.046875 C 12.296875 -8.347656 13.757812 -6.945312 15.6875 -5.84375 C 17.625 -4.75 19.894531 -4.203125 22.5 -4.203125 C 25.769531 -4.203125 28.820312 -4.832031 31.65625 -6.09375 C 34.488281 -7.363281 36.671875 -9 38.203125 -11 Z M 38.203125 -11 "/></g></g></g><g fill="#5e17eb" fill-opacity="1"><g transform="translate(251.092522, 221.999985)"><g><path d="M 33 1 C 28.9375 1 25.171875 -0.046875 21.703125 -2.140625 C 18.234375 -4.242188 15.53125 -6.894531 13.59375 -10.09375 L 13.59375 0 L 7.5 0 L 7.5 -73 L 14.296875 -73 L 14.296875 -41.203125 C 16.628906 -44.734375 19.425781 -47.582031 22.6875 -49.75 C 25.957031 -51.914062 29.757812 -53 34.09375 -53 C 37.757812 -53 41.039062 -52.234375 43.9375 -50.703125 C 46.84375 -49.171875 49.328125 -47.117188 51.390625 -44.546875 C 53.460938 -41.984375 55.03125 -39.082031 56.09375 -35.84375 C 57.164062 -32.613281 57.703125 -29.300781 57.703125 -25.90625 C 57.703125 -22.238281 57.082031 -18.800781 55.84375 -15.59375 C 54.613281 -12.394531 52.863281 -9.546875 50.59375 -7.046875 C 48.332031 -4.546875 45.71875 -2.578125 42.75 -1.140625 C 39.78125 0.285156 36.53125 1 33 1 Z M 31.40625 -5 C 34.195312 -5 36.789062 -5.566406 39.1875 -6.703125 C 41.59375 -7.835938 43.660156 -9.40625 45.390625 -11.40625 C 47.128906 -13.40625 48.460938 -15.65625 49.390625 -18.15625 C 50.328125 -20.65625 50.796875 -23.238281 50.796875 -25.90625 C 50.796875 -29.570312 50.007812 -33.019531 48.4375 -36.25 C 46.875 -39.476562 44.707031 -42.078125 41.9375 -44.046875 C 39.175781 -46.015625 35.929688 -47 32.203125 -47 C 29.535156 -47 27.050781 -46.398438 24.75 -45.203125 C 22.445312 -44.003906 20.410156 -42.421875 18.640625 -40.453125 C 16.878906 -38.484375 15.429688 -36.332031 14.296875 -34 L 14.296875 -17.796875 C 14.566406 -15.992188 15.265625 -14.3125 16.390625 -12.75 C 17.523438 -11.1875 18.941406 -9.835938 20.640625 -8.703125 C 22.347656 -7.566406 24.132812 -6.664062 26 -6 C 27.863281 -5.332031 29.664062 -5 31.40625 -5 Z M 31.40625 -5 "/></g></g></g><g fill="#5e17eb" fill-opacity="1"><g transform="translate(312.790157, 221.999985)"><g><path d="M 24.59375 1 C 20.332031 1 16.367188 0.300781 12.703125 -1.09375 C 9.035156 -2.5 5.867188 -4.632812 3.203125 -7.5 L 6 -12.296875 C 8.9375 -9.566406 11.882812 -7.582031 14.84375 -6.34375 C 17.8125 -5.113281 20.960938 -4.5 24.296875 -4.5 C 28.367188 -4.5 31.671875 -5.316406 34.203125 -6.953125 C 36.734375 -8.585938 38 -10.9375 38 -14 C 38 -16.0625 37.378906 -17.644531 36.140625 -18.75 C 34.910156 -19.851562 33.144531 -20.753906 30.84375 -21.453125 C 28.550781 -22.148438 25.800781 -22.898438 22.59375 -23.703125 C 19 -24.703125 15.984375 -25.75 13.546875 -26.84375 C 11.117188 -27.945312 9.285156 -29.347656 8.046875 -31.046875 C 6.816406 -32.742188 6.203125 -34.960938 6.203125 -37.703125 C 6.203125 -41.097656 7.050781 -43.910156 8.75 -46.140625 C 10.445312 -48.378906 12.78125 -50.082031 15.75 -51.25 C 18.71875 -52.414062 22.035156 -53 25.703125 -53 C 29.703125 -53 33.234375 -52.363281 36.296875 -51.09375 C 39.367188 -49.832031 41.867188 -48.066406 43.796875 -45.796875 L 40.5 -41.203125 C 38.632812 -43.335938 36.414062 -44.921875 33.84375 -45.953125 C 31.28125 -46.984375 28.429688 -47.5 25.296875 -47.5 C 23.160156 -47.5 21.125 -47.210938 19.1875 -46.640625 C 17.257812 -46.078125 15.675781 -45.144531 14.4375 -43.84375 C 13.207031 -42.550781 12.59375 -40.769531 12.59375 -38.5 C 12.59375 -36.632812 13.0625 -35.179688 14 -34.140625 C 14.9375 -33.109375 16.335938 -32.242188 18.203125 -31.546875 C 20.066406 -30.847656 22.363281 -30.097656 25.09375 -29.296875 C 29.03125 -28.234375 32.460938 -27.148438 35.390625 -26.046875 C 38.328125 -24.953125 40.59375 -23.535156 42.1875 -21.796875 C 43.789062 -20.066406 44.59375 -17.632812 44.59375 -14.5 C 44.59375 -9.632812 42.757812 -5.832031 39.09375 -3.09375 C 35.425781 -0.363281 30.59375 1 24.59375 1 Z M 24.59375 1 "/></g></g></g></svg>